<svg fill="none" xmlns="http://www.w3.org/2000/svg">
    <g id='messages'>
        <g clip-path="url(#clip0_27_3285)">
            <path d="M12.5 16.6666C14.8012 16.6666 16.6667 14.8011 16.6667 12.4999C16.6667 10.1987 14.8012 8.33325 12.5 8.33325C10.1988 8.33325 8.33334 10.1987 8.33334 12.4999C8.33334 14.8011 10.1988 16.6666 12.5 16.6666Z"
                  stroke="currentColor" stroke-width="3" stroke-linecap="round" stroke-linejoin="round"/>
            <path d="M16.6667 8.33334V13.5417C16.6667 14.3705 16.9959 15.1653 17.582 15.7514C18.168 16.3374 18.9629 16.6667 19.7917 16.6667C20.6205 16.6667 21.4153 16.3374 22.0014 15.7514C22.5874 15.1653 22.9167 14.3705 22.9167 13.5417V12.5C22.9165 10.149 22.1211 7.86717 20.6597 6.02556C19.1982 4.18395 17.1568 2.89086 14.8673 2.35656C12.5778 1.82226 10.1749 2.07817 8.04932 3.08268C5.92371 4.08718 4.20041 5.78121 3.15964 7.8893C2.11887 9.99739 1.82184 12.3956 2.31684 14.6939C2.81184 16.9922 4.06976 19.0555 5.88607 20.5482C7.70238 22.0409 9.97024 22.8754 12.3209 22.9158C14.6716 22.9562 16.9668 22.2003 18.8333 20.7708"
                  stroke="currentColor" stroke-width="3" stroke-linecap="round" stroke-linejoin="round"/>
        </g>
        <defs>
            <clipPath id="clip0_27_3285">
                <rect width="25" height="25" fill="white"/>
            </clipPath>
        </defs>
    </g>
    <g id='LinkedIn'>
        <path d="M22.874 14.2907V21.9771H18.4177V14.8053C18.4177 13.0032 17.7729 11.774 16.1604 11.774C14.9292 11.774 14.1958 12.6032 13.874 13.4042C13.7562 13.6907 13.726 14.0896 13.726 14.4907V21.9771H9.26771C9.26771 21.9771 9.32812 9.83131 9.26771 8.57193H13.726V10.4719L13.6969 10.5157H13.726V10.4719C14.3177 9.56047 15.375 8.25735 17.7427 8.25735C20.675 8.25735 22.874 10.174 22.874 14.2907ZM4.60521 2.11047C3.08125 2.11047 2.08333 3.11047 2.08333 4.4261C2.08333 5.71256 3.05208 6.74276 4.54687 6.74276H4.57604C6.13125 6.74276 7.09687 5.71256 7.09687 4.4261C7.06979 3.11047 6.13229 2.11047 4.60625 2.11047H4.60521ZM2.34792 21.9771H6.80417V8.57193H2.34792V21.9771Z"
              fill="currentColor"/>
    </g>

    <g id='github'>
        <g clip-path="url(#clip0_1_5115)">
            <path fill-rule="evenodd" clip-rule="evenodd"
                  d="M12.5 0C5.59375 0 0 5.59375 0 12.5C0 18.0312 3.57812 22.7031 8.54687 24.3594C9.17187 24.4687 9.40625 24.0937 9.40625 23.7656C9.40625 23.4687 9.39062 22.4844 9.39062 21.4375C6.25 22.0156 5.4375 20.6719 5.1875 19.9687C5.04687 19.6094 4.4375 18.5 3.90625 18.2031C3.46875 17.9687 2.84375 17.3906 3.89062 17.375C4.875 17.3594 5.57812 18.2812 5.8125 18.6562C6.9375 20.5469 8.73437 20.0156 9.45312 19.6875C9.5625 18.875 9.89062 18.3281 10.25 18.0156C7.46875 17.7031 4.5625 16.625 4.5625 11.8437C4.5625 10.4844 5.04687 9.35938 5.84375 8.48438C5.71875 8.17188 5.28125 6.89062 5.96875 5.17187C5.96875 5.17187 7.01562 4.84375 9.40625 6.45312C10.4062 6.17187 11.4687 6.03125 12.5312 6.03125C13.5937 6.03125 14.6562 6.17187 15.6562 6.45312C18.0469 4.82813 19.0937 5.17187 19.0937 5.17187C19.7812 6.89062 19.3438 8.17188 19.2188 8.48438C20.0156 9.35938 20.5 10.4687 20.5 11.8437C20.5 16.6406 17.5781 17.7031 14.7969 18.0156C15.25 18.4062 15.6406 19.1562 15.6406 20.3281C15.6406 22 15.625 23.3437 15.625 23.7656C15.625 24.0937 15.8594 24.4844 16.4844 24.3594C18.9658 23.5216 21.1221 21.9268 22.6496 19.7993C24.1772 17.6719 24.9993 15.119 25 12.5C25 5.59375 19.4062 0 12.5 0Z"
                  fill="currentColor"/>
        </g>
        <defs>
            <clipPath id="clip0_1_5115">
                <rect width="35" height="35" fill="white"/>
            </clipPath>
        </defs>
    </g>

    <g id='code'>
        <path fill-rule="evenodd" clip-rule="evenodd"
              d="M18.3125 42.0645L27.2623 6.6875L31.4375 7.87241L22.4878 43.3125L18.3125 42.0645Z" fill="currentColor"/>
        <path fill-rule="evenodd" clip-rule="evenodd"
              d="M13.5025 12.6875L16.5625 15.9278L7.99501 25.0001L16.5625 34.0721L13.5025 37.3125L1.875 25.0001L13.5025 12.6875Z"
              fill="currentColor"/>
        <path fill-rule="evenodd" clip-rule="evenodd"
              d="M36.4976 12.6875L33.4375 15.9278L42.0051 25.0001L33.4375 34.0721L36.4976 37.3125L48.125 25.0001L36.4976 12.6875Z"
              fill="currentColor"/>
    </g>

    <g id='telegram'>
        <path d="M19.9837 5.52768L17.457 19.8567C17.2638 20.8684 16.6791 21.1387 15.8197 20.6951L11.1068 17.4664L8.96271 19.676C8.72556 19.93 8.52772 20.142 8.05438 20.1582L8.22381 15.4663L16.4769 7.4761C16.836 7.13351 16.3785 6.96556 15.8951 7.31314L5.5928 14.3067L1.01043 13.0434C0.0138901 12.7697 -0.0273053 12.092 1.16581 11.5771L18.6627 4.13501C19.4732 3.79904 20.2083 4.26407 19.9837 5.52768Z"
              fill="currentColor"/>
    </g>
</svg>
